<?xml version="1.0" standalone="no"?>
<!DOCTYPE svg PUBLIC "-//W3C//DTD SVG 20010904//EN"
 "http://www.w3.org/TR/2001/REC-SVG-20010904/DTD/svg10.dtd">
<svg version="1.0" xmlns="http://www.w3.org/2000/svg"
 width="308.000000pt" height="227.000000pt" viewBox="0 0 308.000000 227.000000"
 preserveAspectRatio="xMidYMid meet">

<g transform="translate(0.000000,227.000000) scale(0.100000,-0.100000)"
fill="#000000" stroke="none">
<path d="M0 2090 l0 -181 58 3 c44 2 56 6 54 18 -3 12 -1 12 9 3 9 -9 20 -6
50 13 21 13 42 24 46 23 5 -1 28 0 53 1 l45 3 -40 7 -40 7 42 2 c38 1 59 11
48 23 -3 2 -28 2 -55 -2 -43 -6 -53 -4 -61 12 -5 10 -18 18 -28 18 -16 0 -56
16 -100 39 -35 18 -22 31 33 31 48 0 59 4 86 30 25 24 39 30 75 30 25 0 45 -3
45 -8 0 -18 63 -33 132 -30 64 3 70 5 48 15 -20 9 -9 10 60 6 62 -3 81 -2 70
6 -8 6 -22 11 -30 11 -8 0 -33 5 -55 11 l-40 12 55 12 c61 14 212 35 251 35
14 0 55 -9 90 -20 59 -18 213 -46 318 -57 30 -4 39 -8 30 -14 -11 -7 -9 -9 6
-9 17 0 18 -2 5 -11 -12 -8 -10 -9 10 -5 14 3 31 6 38 6 7 0 10 5 7 10 -4 6
20 10 66 10 58 0 69 2 60 13 -8 10 -7 14 2 15 31 3 104 10 122 11 17 1 18 3 5
11 -8 5 -10 10 -5 10 15 0 -45 30 -61 30 -8 0 -14 7 -14 15 0 13 -73 15 -602
14 -415 -1 -592 -4 -569 -11 26 -7 31 -12 20 -19 -8 -5 -27 -9 -43 -9 -17 0
-56 -5 -87 -12 l-58 -12 -29 32 c-25 27 -37 32 -76 32 l-46 0 0 -180z m355
100 c15 -7 10 -9 -23 -9 -26 -1 -41 3 -37 9 7 12 32 12 60 0z"/>
<path d="M1545 2263 c21 -6 65 -48 65 -62 0 -4 38 -11 85 -15 47 -3 89 -7 93
-7 4 -1 25 0 47 1 l40 2 -35 13 c-34 13 -33 14 50 16 47 1 95 3 107 3 11 1 25
4 29 9 14 14 52 7 57 -10 4 -17 5 -17 6 0 1 22 41 23 41 1 0 -9 -9 -18 -20
-21 -11 -3 -20 -10 -20 -15 0 -5 -9 -6 -20 -3 -24 8 -53 -12 -43 -29 4 -6 -1
-5 -10 3 -25 20 -21 5 5 -19 26 -23 58 -27 58 -5 0 16 6 17 80 19 50 1 80 -12
58 -25 -8 -6 2 -9 28 -9 22 0 44 4 50 9 5 5 45 16 89 24 94 18 171 48 141 55
-16 3 -14 7 14 18 18 8 30 17 26 21 -3 4 -12 1 -18 -5 -13 -13 -66 -16 -92 -6
-9 3 -16 15 -16 25 0 16 -8 19 -53 19 -29 0 -58 -5 -64 -11 -8 -8 -17 -8 -31
0 -27 14 -378 15 -387 1 -3 -5 -24 -10 -45 -10 -21 0 -42 5 -45 10 -4 6 -63
10 -148 9 -78 -1 -133 -4 -122 -6z m625 -33 c0 -5 -4 -10 -10 -10 -5 0 -10 5
-10 10 0 6 5 10 10 10 6 0 10 -4 10 -10z m-373 -26 c-3 -3 -12 -4 -19 -1 -8 3
-5 6 6 6 11 1 17 -2 13 -5z"/>
<path d="M2992 2258 c-7 -7 -12 -24 -12 -39 0 -22 -6 -28 -31 -33 -17 -3 -38
-2 -47 2 -9 5 -33 6 -52 2 l-35 -6 50 -16 c28 -9 63 -19 78 -22 16 -4 36 -20
47 -39 18 -29 20 -30 20 -9 0 18 4 22 19 17 11 -3 23 0 27 6 5 9 10 7 15 -7 4
-11 8 18 8 69 l1 87 -38 0 c-21 0 -43 -5 -50 -12z"/>
<path d="M1998 2103 c7 -3 16 -2 19 1 4 3 -2 6 -13 5 -11 0 -14 -3 -6 -6z"/>
<path d="M2643 2077 c-4 -8 -16 -17 -26 -20 -29 -11 -9 -27 33 -27 31 0 38 3
35 18 -2 9 -4 23 -4 30 -1 16 -28 16 -38 -1z"/>
<path d="M3060 2071 c0 -6 4 -13 10 -16 6 -3 7 1 4 9 -7 18 -14 21 -14 7z"/>
<path d="M1928 2013 c7 -3 16 -2 19 1 4 3 -2 6 -13 5 -11 0 -14 -3 -6 -6z"/>
<path d="M2660 1639 c0 -5 5 -7 10 -4 6 3 10 8 10 11 0 2 -4 4 -10 4 -5 0 -10
-5 -10 -11z"/>
<path d="M2776 1599 c3 -5 0 -16 -6 -24 -11 -13 -3 -15 56 -15 41 0 64 4 59 9
-15 14 -117 42 -109 30z"/>
<path d="M2644 1578 c16 -25 16 -25 -11 -21 -27 4 -27 4 -9 -11 11 -9 28 -16
39 -16 15 0 18 5 13 25 -5 19 -3 23 9 19 8 -4 15 -1 15 5 0 6 -9 11 -19 11
-11 0 -27 3 -36 7 -16 6 -16 4 -1 -19z"/>
<path d="M2938 1563 c23 -2 61 -2 85 0 23 2 4 4 -43 4 -47 0 -66 -2 -42 -4z"/>
<path d="M1708 1163 c18 -2 45 -2 60 0 15 2 0 4 -33 4 -33 0 -45 -2 -27 -4z"/>
<path d="M1458 1153 c7 -3 16 -2 19 1 4 3 -2 6 -13 5 -11 0 -14 -3 -6 -6z"/>
<path d="M128 1143 c7 -3 16 -2 19 1 4 3 -2 6 -13 5 -11 0 -14 -3 -6 -6z"/>
<path d="M230 1140 c-62 -7 -128 -15 -198 -26 -30 -5 -32 -7 -32 -47 0 -42 1
-43 33 -41 17 1 58 3 90 5 34 2 56 8 54 14 -2 5 -19 9 -38 7 -26 -2 -30 0 -19
7 25 18 58 13 65 -9 4 -14 13 -19 23 -16 48 15 219 29 397 32 265 6 396 12
403 18 3 3 10 -1 16 -9 9 -13 21 -14 66 -6 l55 10 -57 -3 c-32 -1 -58 1 -58 6
0 5 54 7 119 6 66 -1 123 1 127 4 3 4 12 1 20 -6 7 -7 25 -12 40 -10 24 2 16
-8 -57 -79 -46 -45 -83 -85 -81 -90 1 -5 -1 -6 -6 -3 -12 7 -54 -38 -45 -49 5
-4 3 -5 -3 -2 -12 7 -47 -25 -39 -36 3 -4 2 -5 -1 -2 -7 5 -92 -66 -171 -141
-24 -23 -43 -49 -43 -59 0 -10 -5 -15 -14 -12 -8 3 -37 -17 -69 -46 -30 -29
-78 -71 -106 -95 -56 -47 -63 -62 -28 -63 21 0 21 -1 2 -8 -11 -5 -22 -6 -25
-2 -13 15 -31 9 -40 -13 -6 -18 -15 -24 -29 -21 -13 2 -18 -1 -15 -9 3 -7 -7
-18 -20 -26 -14 -7 -23 -16 -21 -20 3 -4 -9 -13 -25 -20 -34 -14 -52 -33 -23
-24 17 5 17 5 0 -6 -14 -9 -22 -9 -33 0 -10 9 -14 9 -14 1 0 -6 5 -11 10 -11
6 0 10 -5 10 -11 0 -6 -8 -8 -17 -5 -17 6 -17 5 0 -8 18 -14 24 -32 7 -21 -6
4 -23 8 -38 11 -26 4 -26 3 -8 -11 13 -9 15 -15 7 -15 -8 0 -24 -10 -36 -22
-13 -13 -38 -34 -55 -48 -18 -14 -38 -30 -44 -36 -6 -6 -16 -9 -22 -7 -13 4
-15 -28 -2 -44 6 -8 4 -10 -10 -6 -11 2 -23 0 -26 -6 -5 -8 43 -11 163 -11
107 0 171 4 171 10 0 6 6 10 14 10 9 0 13 8 10 23 -4 20 -3 20 8 -3 7 -14 22
-26 33 -27 20 -1 20 -1 1 13 -20 14 -20 14 0 14 16 1 16 3 -6 15 -14 8 -33 14
-42 15 -26 0 -22 17 5 24 14 4 32 -2 50 -14 15 -12 27 -18 27 -14 0 4 -8 13
-17 20 -15 10 -16 15 -5 25 15 16 16 33 0 23 -7 -4 -8 -3 -4 5 4 6 12 9 17 6
17 -11 30 5 19 26 -15 27 -3 24 26 -8 l25 -28 -17 28 c-14 23 -15 30 -5 37 10
6 9 10 -5 19 -18 11 -18 12 1 8 14 -2 19 -9 17 -26 -2 -19 1 -21 11 -12 8 6
17 9 20 6 4 -3 5 -2 2 1 -2 4 0 15 5 24 7 13 6 20 -5 24 -8 3 -15 10 -15 17 0
6 7 8 16 5 8 -3 12 -2 9 4 -3 6 2 10 12 10 17 1 17 2 -1 15 -14 11 -16 15 -5
15 24 0 42 -17 34 -31 -6 -9 -3 -11 9 -6 10 4 20 7 23 7 12 0 -25 28 -46 35
-21 6 -22 8 -5 26 12 14 21 16 30 8 9 -7 14 -6 20 2 4 8 3 9 -4 5 -7 -4 -12
-2 -12 3 0 6 9 11 21 11 14 0 19 5 16 14 -9 22 44 59 56 39 2 -5 2 -2 1 5 -4
15 8 16 24 0 9 -9 15 -9 24 0 9 9 7 12 -10 12 -12 0 -22 5 -22 11 0 6 -9 9
-19 6 -14 -3 -18 -1 -14 9 3 8 11 14 19 14 8 0 14 7 14 15 0 10 10 15 28 16
15 0 21 3 15 6 -20 8 -15 33 6 33 22 0 36 26 18 33 -7 3 1 10 18 16 22 9 26
14 16 20 -11 7 -9 11 8 20 12 7 27 9 34 5 9 -6 9 -4 -1 8 -14 17 -5 24 46 37
4 2 -2 6 -13 11 -19 9 -19 9 2 16 13 3 21 10 18 14 -3 4 19 35 48 68 52 59
135 158 149 177 25 34 88 105 88 100 0 -10 -22 -49 -37 -63 -7 -7 -13 -20 -13
-27 0 -8 -13 -29 -28 -47 -15 -18 -39 -58 -52 -88 -14 -30 -35 -66 -47 -80
-13 -14 -23 -30 -23 -37 0 -7 -3 -13 -8 -13 -4 0 -13 -9 -20 -21 -11 -17 -11
-20 0 -14 7 3 3 -2 -9 -13 -12 -11 -20 -22 -17 -25 3 -3 -6 -16 -20 -30 -26
-26 -36 -54 -14 -41 7 4 8 3 4 -4 -4 -6 -13 -9 -22 -5 -16 6 -16 -16 1 -30 6
-5 0 -5 -12 -2 -21 6 -33 -8 -15 -18 4 -2 1 -2 -5 -1 -17 4 -17 -23 0 -30 6
-3 3 -4 -9 -1 -15 4 -24 -2 -34 -20 -7 -14 -17 -25 -22 -25 -4 0 -8 -9 -8 -20
0 -19 10 -24 39 -21 7 2 10 -2 7 -8 -9 -14 -49 -9 -64 9 -11 13 -13 13 -9 0 2
-8 -3 -22 -12 -30 -18 -17 -25 -40 -13 -40 4 0 13 5 20 12 9 9 12 9 12 0 0 -7
-5 -12 -11 -12 -5 0 -7 -4 -4 -10 9 -15 -8 -12 -35 7 -24 16 -24 16 -10 -2 11
-14 12 -19 3 -22 -7 -3 -23 -22 -35 -44 -12 -21 -25 -39 -30 -39 -4 0 -5 -6
-2 -14 4 -11 0 -13 -18 -9 -21 6 -22 5 -8 -12 14 -17 13 -18 -3 -12 -10 4 -16
3 -12 -2 10 -17 -6 -42 -20 -31 -9 7 -11 2 -10 -20 1 -20 -3 -30 -12 -30 -8 0
-12 -4 -8 -10 3 -5 -3 -18 -14 -29 -11 -11 -16 -22 -13 -26 4 -3 0 -11 -8 -16
-12 -8 -9 -9 10 -7 16 2 30 13 39 33 8 17 17 32 21 35 4 3 10 15 14 28 4 12
11 22 17 22 5 0 0 -15 -10 -34 -11 -19 -18 -36 -15 -39 2 -2 -2 -10 -11 -17
-8 -7 -15 -17 -15 -21 0 -6 75 -9 170 -9 161 1 170 3 170 21 0 10 -5 19 -11
19 -6 0 -9 -7 -5 -15 3 -8 1 -15 -4 -15 -13 0 -13 27 0 35 5 3 7 12 4 19 -3 7
2 18 10 25 11 9 18 7 34 -14 11 -14 24 -25 28 -25 4 0 3 5 -3 11 -9 9 -6 16
10 30 12 10 17 18 10 19 -6 0 -13 -5 -15 -12 -3 -8 -12 -4 -26 10 -23 23 -20
57 4 48 8 -3 14 1 14 10 0 8 5 12 10 9 19 -12 10 19 -12 43 l-23 24 23 -6 c22
-7 31 7 11 19 -6 4 -8 13 -5 21 3 7 1 16 -5 20 -6 3 -1 14 12 25 20 17 18 24
-5 20 -5 -1 -3 5 4 14 11 14 14 13 28 -6 15 -22 16 -22 22 -3 11 31 1 45 -29
38 -26 -7 -26 -7 -6 13 11 11 27 18 35 15 8 -3 4 4 -10 16 l-25 21 24 -6 c17
-4 22 -3 17 5 -4 7 -1 12 8 12 18 0 21 31 5 47 -13 13 14 83 32 83 7 0 4 9 -7
21 -19 21 -19 22 4 15 16 -6 22 -3 22 8 0 9 -5 16 -12 16 -6 0 -3 7 8 15 14
11 16 15 4 15 -13 1 -13 2 1 13 9 7 14 22 13 35 -3 15 1 22 12 22 12 0 14 3 6
13 -8 9 -7 21 3 40 8 16 17 45 21 65 4 20 15 54 25 74 11 21 18 41 18 45 -1 5
5 24 14 43 8 19 13 38 11 42 -3 5 0 8 5 8 13 0 14 8 -5 -75 -9 -39 -18 -86
-20 -105 -11 -81 -33 -225 -40 -255 -36 -168 -39 -189 -22 -179 7 4 8 3 4 -4
-4 -6 -13 -9 -20 -6 -10 4 -13 -4 -13 -28 0 -58 -7 -99 -19 -109 -8 -7 -10
-20 -4 -40 5 -18 5 -27 -1 -24 -5 4 -9 2 -9 -4 0 -5 5 -11 11 -13 8 -3 7 -9
-3 -19 -8 -8 -14 -24 -13 -36 1 -13 -3 -19 -10 -16 -15 5 -28 -24 -15 -32 6
-4 10 -11 10 -16 0 -6 -5 -7 -10 -4 -5 3 -10 1 -10 -4 0 -6 5 -11 11 -11 6 0
3 -7 -5 -16 -18 -18 -21 -34 -6 -34 6 0 10 -11 10 -24 l0 -25 164 0 c131 -1
166 2 175 13 10 11 9 16 -5 24 -18 10 -28 52 -12 52 4 0 8 5 8 11 0 6 -9 9
-20 6 -12 -3 -18 -1 -14 5 3 5 16 7 28 4 17 -4 21 -1 21 18 0 13 -3 22 -7 19
-5 -2 -8 1 -8 6 0 19 22 12 27 -8 5 -21 28 -18 37 4 3 9 0 12 -10 8 -9 -3 -14
0 -12 8 2 7 -6 15 -17 17 -31 6 -42 21 -25 33 13 9 13 10 0 7 -8 -2 -17 2 -19
7 -2 6 -11 15 -20 22 -15 11 -15 12 0 13 16 0 23 30 7 30 -4 0 -8 5 -8 11 0 5
5 7 12 3 8 -5 9 -2 5 9 -3 9 -2 19 3 22 15 9 -8 45 -28 45 -14 0 -15 2 -3 9 9
6 22 6 32 0 27 -14 32 -11 14 8 -16 15 -16 18 -1 29 15 10 14 12 -5 17 -15 4
-19 2 -15 -8 3 -8 1 -17 -3 -20 -14 -8 -22 25 -11 44 5 10 7 21 4 24 -3 3 -3
11 1 17 5 8 11 7 23 -2 15 -12 16 -11 3 5 -9 12 -18 14 -24 8 -14 -14 -48 6
-41 24 4 9 15 13 28 11 11 -2 15 -1 8 1 -7 3 -10 9 -7 13 3 5 -3 18 -14 29
-17 17 -18 22 -5 39 11 16 11 21 1 25 -9 3 -9 7 2 20 12 15 11 17 -5 18 -12 0
-14 3 -6 6 10 4 9 9 -4 24 -15 17 -15 19 -2 14 9 -4 19 -1 24 6 4 7 3 10 -4 5
-6 -3 -14 -1 -18 5 -3 6 0 15 7 20 11 7 11 9 -2 9 -13 0 -18 16 -23 78 -10
105 -13 126 -20 151 -19 67 -19 68 -3 46 8 -11 27 -65 42 -120 15 -55 38 -132
51 -172 13 -39 25 -84 26 -100 1 -15 4 -32 7 -38 7 -12 10 -29 15 -76 2 -20 6
-41 10 -47 4 -7 9 -24 11 -39 2 -16 7 -39 11 -53 3 -14 8 -41 10 -60 4 -48 9
-68 17 -76 3 -4 2 -15 -4 -26 -7 -14 -7 -23 2 -34 6 -8 8 -14 4 -14 -3 0 3
-12 14 -26 24 -31 27 -46 7 -38 -8 3 -16 -4 -19 -17 -7 -24 9 -52 24 -43 5 3
6 -2 3 -10 -3 -8 0 -25 7 -38 7 -13 12 -26 12 -29 -1 -4 92 -7 207 -8 176 -2
210 1 210 13 0 17 -15 23 -57 21 -18 -1 -30 2 -27 6 3 5 0 9 -6 9 -6 0 -8 5
-5 10 3 5 11 10 16 10 6 0 8 -4 4 -9 -3 -5 -1 -12 5 -16 6 -4 10 5 10 19 0 14
5 26 10 26 16 0 12 27 -5 34 -8 3 -15 12 -15 20 0 10 -6 13 -15 10 -8 -4 -15
-1 -15 5 0 6 -9 11 -20 11 -19 0 -20 2 -6 28 12 24 12 29 -2 42 -16 15 -20 16
-43 19 -8 1 -8 5 0 15 9 11 8 15 -5 20 -24 9 -31 7 -14 -5 13 -9 13 -10 0 -6
-8 2 -24 0 -35 -6 -13 -6 -8 2 12 22 19 19 30 38 26 47 -4 11 -9 12 -19 3 -11
-9 -14 -9 -14 0 0 7 -5 9 -12 5 -8 -5 -9 -2 -5 10 4 10 7 20 7 22 0 3 5 2 10
-1 16 -10 12 11 -5 25 -8 6 -19 9 -25 5 -5 -3 -10 -2 -10 4 0 5 6 11 13 14 6
2 9 8 5 12 -4 4 -14 3 -21 -3 -18 -15 -30 -3 -16 15 9 10 7 13 -9 13 -12 0
-24 4 -27 10 -3 5 3 10 15 10 12 0 18 5 15 10 -3 6 -15 10 -26 10 -17 0 -18 3
-8 22 11 20 10 21 -3 10 -13 -10 -17 -10 -22 3 -3 9 -2 14 3 11 5 -4 7 3 4 15
-3 11 -12 23 -19 26 -7 3 -20 19 -29 36 -18 37 -19 42 -2 31 7 -5 1 1 -13 14
-18 16 -22 24 -13 30 9 5 6 12 -10 21 -20 13 -21 13 -8 -2 16 -20 6 -23 -13
-5 -11 11 -11 15 3 25 14 11 14 12 -3 13 -15 0 -16 3 -6 15 11 13 9 15 -13 15
-29 0 -54 24 -37 35 7 5 5 12 -7 23 -10 10 -25 31 -33 47 -8 17 -18 32 -21 35
-4 3 -16 25 -29 50 -12 25 -32 56 -44 69 -21 23 -21 23 0 11 11 -7 31 -29 45
-49 44 -66 134 -185 155 -206 28 -27 116 -150 143 -200 12 -22 35 -58 50 -80
16 -22 27 -43 25 -47 -2 -4 0 -9 5 -12 17 -11 105 -151 103 -164 -2 -7 7 -16
20 -22 13 -5 20 -9 15 -9 -4 -1 0 -12 9 -26 9 -14 14 -32 10 -40 -4 -10 1 -15
14 -15 19 0 24 -10 21 -38 -1 -6 3 -12 9 -12 5 0 9 -3 8 -8 -3 -14 16 -47 41
-70 18 -16 21 -22 9 -18 -24 7 -22 -2 5 -25 20 -17 39 -19 223 -18 145 1 205
5 218 14 11 8 13 15 7 20 -6 3 -11 1 -11 -4 0 -26 -20 -8 -26 24 -3 20 -11 35
-18 34 -6 -1 -22 0 -36 1 -17 2 -20 4 -8 7 24 6 11 33 -16 33 -12 0 -28 6 -35
12 -9 8 -11 8 -8 2 4 -7 1 -14 -7 -17 -11 -4 -13 2 -10 26 2 20 0 27 -5 18 -6
-9 -11 -10 -15 -2 -4 6 -5 15 -2 20 8 12 -20 22 -41 15 -15 -5 -16 -4 -3 5 12
8 9 12 -17 22 -38 13 -40 17 -15 35 18 14 19 14 -25 14 -5 0 -8 -4 -8 -9 0 -5
-4 -13 -9 -18 -5 -4 -6 -3 -3 4 4 6 1 13 -5 16 -7 3 4 12 25 21 21 9 35 21 31
27 -3 6 -13 8 -21 5 -9 -4 -17 1 -20 14 -3 11 -10 17 -15 14 -5 -3 -15 2 -23
12 -7 11 -17 16 -20 12 -10 -10 -45 10 -45 25 0 7 4 6 10 -3 5 -8 10 -10 10
-4 0 18 -13 24 -27 13 -10 -9 -13 -8 -13 5 0 9 -6 16 -12 16 -9 0 -8 4 2 10
13 9 11 13 -10 31 -14 12 -26 16 -28 10 -5 -15 -29 -14 -38 1 -5 8 -2 9 10 5
15 -6 14 -2 -4 23 -12 17 -28 30 -36 30 -9 0 -12 5 -8 11 4 7 -1 7 -16 -1 -20
-11 -21 -10 -11 9 14 26 14 31 -4 31 -8 0 -15 -8 -15 -17 0 -15 -2 -16 -9 -3
-6 8 -7 18 -5 22 12 19 -9 29 -27 12 -21 -19 -26 -6 -6 15 10 12 9 13 -7 7
-13 -5 -17 -2 -13 9 4 8 -10 31 -33 55 -22 23 -40 46 -40 51 0 4 -6 6 -14 3
-9 -3 -17 3 -21 17 -5 16 -9 18 -15 8 -5 -7 -6 -17 -4 -21 3 -4 1 -8 -5 -8 -6
0 -9 13 -7 30 2 16 -1 27 -5 24 -5 -3 -9 0 -9 6 0 6 -4 9 -9 6 -5 -3 -21 6
-35 19 -15 14 -33 22 -39 18 -7 -4 -6 0 2 10 8 10 9 17 3 17 -6 0 -28 18 -48
39 -23 26 -41 38 -52 34 -11 -5 -14 -2 -9 10 4 11 -10 30 -46 63 -29 25 -41
41 -28 34 13 -7 52 -38 86 -69 119 -109 185 -162 293 -235 24 -17 61 -49 82
-73 20 -24 40 -43 43 -43 9 0 75 -59 124 -110 24 -25 51 -45 61 -45 10 0 25
-16 36 -38 16 -34 22 -38 45 -32 17 4 21 3 12 -4 -11 -7 -11 -10 2 -17 32 -18
97 -86 92 -95 -4 -5 -1 -9 4 -9 13 0 51 -36 51 -49 0 -5 11 -12 24 -15 14 -3
37 -23 52 -44 15 -21 48 -52 74 -70 43 -29 112 -95 83 -78 -7 4 -18 4 -25 0
-26 -16 33 -23 207 -23 99 1 174 3 168 6 -15 6 -17 33 -3 33 6 0 10 -3 10 -8
0 -4 9 -13 20 -20 26 -16 26 -2 0 25 -15 17 -28 21 -62 18 l-43 -4 39 18 c24
11 34 21 27 26 -7 3 -19 1 -27 -6 -8 -6 -18 -8 -22 -4 -4 4 -1 10 6 12 19 7
14 22 -8 20 -11 -1 -20 -4 -20 -7 0 -3 -12 -5 -27 -4 -16 1 -34 3 -40 3 -7 1
-13 9 -13 18 0 13 3 14 12 5 12 -12 48 -17 48 -6 0 3 -10 18 -22 32 -11 15
-19 20 -16 12 4 -11 -1 -16 -13 -16 -11 0 -17 6 -15 12 3 8 -3 10 -16 6 -14
-3 -19 -1 -14 6 4 7 1 12 -9 12 -11 0 -15 5 -12 14 6 16 -16 12 -43 -8 -13
-10 -13 -9 -1 7 13 16 13 20 1 27 -8 5 -17 7 -21 4 -4 -2 -11 1 -15 7 -4 7 -3
9 3 6 6 -4 17 1 24 10 13 15 11 16 -19 10 -25 -5 -37 -2 -54 15 l-21 21 27 -5
c33 -7 33 -2 -2 16 -16 8 -34 11 -42 6 -8 -4 -26 -4 -39 1 -18 7 -21 12 -12
23 9 11 7 15 -11 19 -28 8 -34 2 -19 -17 7 -8 8 -17 3 -20 -11 -7 -22 16 -22
44 0 10 -5 22 -12 26 -7 4 -8 3 -4 -4 4 -7 2 -12 -3 -12 -6 0 -11 6 -11 14 0
22 -56 41 -75 26 -8 -7 -12 -17 -8 -23 3 -6 1 -7 -5 -3 -14 8 -5 33 14 40 24
9 15 24 -11 18 -19 -3 -25 0 -25 13 0 11 -5 15 -14 12 -8 -3 -20 1 -26 9 -7 8
-19 14 -26 14 -8 0 -11 6 -8 15 7 18 -7 20 -24 3 -8 -8 -12 -9 -12 -1 0 6 6
14 13 17 8 3 7 8 -6 16 -9 6 -15 15 -12 19 6 10 -28 9 -35 0 -3 -4 -14 5 -24
19 -18 24 -18 25 -1 19 15 -6 16 -5 5 8 -8 10 -16 12 -20 6 -4 -7 -18 -7 -44
0 -30 8 -35 13 -26 24 9 11 7 15 -14 21 -13 3 -30 2 -37 -2 -9 -5 -10 -2 -6 9
5 12 1 17 -13 17 -13 0 -18 5 -14 15 7 17 -7 20 -23 4 -7 -7 -15 -5 -27 6 -9
9 -14 20 -12 24 3 4 -4 8 -15 8 -10 1 -26 9 -35 17 -9 9 -20 14 -25 11 -5 -4
-6 2 -2 11 5 13 3 15 -7 9 -8 -5 -18 -2 -26 9 -7 10 -19 19 -28 20 -8 1 -29
14 -45 28 -16 15 -32 24 -35 21 -3 -4 -6 -1 -6 6 0 7 -4 9 -10 6 -5 -3 -10 0
-10 7 0 7 -17 22 -37 33 -20 11 -56 36 -79 55 -23 19 -50 41 -60 48 -17 11
-17 11 3 2 13 -6 73 -45 135 -87 62 -42 147 -94 188 -116 41 -22 94 -53 117
-69 24 -16 43 -26 43 -23 0 4 18 -8 40 -25 23 -18 44 -30 47 -26 3 3 24 -8 46
-24 23 -17 47 -30 54 -30 7 0 13 -4 13 -9 0 -5 9 -13 20 -16 11 -3 26 -12 32
-18 41 -39 117 -97 127 -97 6 0 14 -6 17 -14 3 -8 12 -12 21 -9 12 5 14 1 8
-15 -4 -14 -2 -22 5 -22 6 0 9 4 6 9 -3 5 1 12 10 15 11 4 15 2 11 -8 -5 -13
-2 -13 19 -4 25 12 48 3 26 -11 -8 -5 1 -15 28 -30 23 -13 50 -32 62 -44 12
-14 22 -18 25 -11 4 13 35 -9 97 -71 22 -22 45 -41 51 -41 24 -4 55 -17 55
-24 0 -4 13 -10 30 -13 17 -4 30 -13 30 -22 0 -8 11 -17 25 -21 14 -3 22 -11
19 -16 -4 -6 2 -7 16 -3 19 6 22 4 16 -10 -4 -12 -2 -16 6 -12 13 4 40 -16 37
-29 0 -3 2 -8 5 -12 3 -3 6 41 6 97 0 72 -3 100 -11 95 -7 -4 -7 1 1 16 15 27
6 37 -17 19 -11 -9 -14 -10 -9 -1 4 6 3 12 -3 12 -5 0 -11 -6 -14 -13 -2 -6
-2 -2 0 11 2 12 -1 22 -7 22 -5 0 -10 -4 -10 -9 0 -5 -7 -12 -16 -15 -14 -5
-15 -4 -4 9 17 21 -6 51 -26 34 -7 -6 -18 -8 -24 -4 -5 3 -13 -1 -16 -9 -3 -9
-10 -13 -15 -10 -13 8 -11 21 7 39 13 13 19 14 25 4 4 -8 11 -11 14 -7 12 12
-46 41 -84 42 -24 1 -37 5 -34 12 3 7 -5 10 -21 7 -16 -3 -26 -1 -26 6 0 14
-45 33 -78 33 -16 0 -20 4 -13 12 6 8 6 17 -1 26 -8 12 -9 12 -4 -2 7 -22 -1
-23 -20 -4 -7 8 -10 16 -6 19 4 2 1 2 -7 0 -7 -2 -20 2 -27 8 -8 6 -23 9 -34
6 -22 -6 -28 8 -7 16 7 3 3 6 -8 8 -11 1 -24 3 -30 4 -5 2 -16 3 -22 4 -7 0
-13 8 -13 17 0 10 -5 14 -15 10 -13 -4 -14 -2 -5 14 10 19 7 20 -41 20 -40 0
-49 3 -41 13 8 9 4 12 -14 13 -15 1 -22 -2 -18 -10 3 -6 -3 0 -14 13 -10 13
-24 21 -30 17 -5 -3 -13 1 -16 10 -4 10 -13 13 -26 9 -11 -3 -20 -2 -20 3 0 5
-18 15 -40 22 -28 9 -37 16 -28 22 7 4 11 8 8 9 -45 8 -56 12 -70 24 -9 8 -24
15 -32 15 -9 0 -41 13 -72 29 -31 17 -56 27 -56 23 0 -4 -4 -2 -8 5 -4 6 -32
23 -62 37 -80 37 -189 97 -235 129 -49 34 -39 36 14 2 52 -32 398 -199 436
-210 55 -15 112 -41 120 -56 7 -10 88 -49 111 -53 7 -1 18 -7 25 -12 8 -6 26
-9 42 -8 15 2 25 -1 22 -7 -4 -5 6 -14 21 -19 21 -8 29 -8 35 2 6 10 12 7 24
-10 9 -12 20 -20 25 -17 5 3 12 0 16 -6 4 -8 3 -9 -4 -5 -8 5 -10 2 -6 -8 3
-9 9 -15 12 -14 18 4 159 -73 170 -92 7 -12 16 -19 19 -16 4 3 13 0 21 -7 12
-9 16 -9 19 1 6 16 23 16 23 -1 0 -17 65 -48 85 -41 8 4 17 -1 21 -10 3 -9 10
-14 14 -11 11 7 70 -27 70 -41 0 -6 6 -11 13 -11 6 0 20 -4 30 -8 16 -7 18 -2
16 44 -2 44 -6 52 -25 57 -12 3 -25 12 -28 21 -5 12 -8 12 -23 -3 -16 -16 -18
-15 -27 5 -5 11 -13 21 -18 21 -5 0 -6 -5 -3 -10 3 -6 1 -10 -4 -10 -6 0 -11
4 -11 10 0 5 -7 7 -15 4 -8 -4 -15 -1 -15 5 0 6 5 11 10 11 6 0 10 4 10 9 0 4
-24 11 -52 14 -29 4 -54 11 -56 17 -2 5 -11 10 -21 10 -9 0 -27 9 -39 20 -12
11 -28 20 -36 20 -8 0 -17 4 -20 9 -3 5 -15 7 -26 4 -13 -4 -20 0 -20 10 0 12
-7 13 -36 7 -29 -7 -34 -5 -30 6 3 8 -1 15 -12 16 -9 0 -22 2 -29 2 -7 1 -18
7 -25 14 -6 6 -23 12 -37 12 -21 0 -23 2 -11 11 12 9 11 10 -7 6 -15 -3 -23 0
-23 8 0 7 -10 11 -25 10 -14 -2 -23 1 -19 6 3 5 -4 9 -15 9 -11 0 -24 7 -29
17 -6 10 -16 14 -26 10 -9 -4 -16 -3 -16 2 0 4 -6 8 -12 8 -20 1 -113 37 -116
46 -2 4 -11 7 -21 7 -9 0 -21 4 -27 9 -5 5 -34 16 -64 26 -30 10 -66 24 -80
31 -14 7 -88 42 -164 78 -77 37 -137 68 -134 71 2 3 45 -15 94 -39 49 -24 107
-49 129 -57 22 -7 45 -16 50 -20 6 -4 64 -28 130 -54 66 -25 132 -51 147 -56
15 -6 30 -10 34 -9 4 1 10 -3 13 -9 4 -6 24 -13 46 -16 21 -2 41 -8 44 -13 3
-5 24 -15 46 -22 22 -7 51 -20 65 -30 29 -20 117 -43 131 -35 5 4 8 1 7 -7 -2
-7 3 -13 11 -13 8 0 15 8 17 18 3 22 -46 49 -67 36 -8 -5 -18 -9 -24 -9 -5 0
-3 5 5 10 13 9 13 11 0 20 -19 13 -46 8 -42 -8 1 -7 -3 -12 -9 -12 -6 0 -8 9
-4 20 7 21 -4 27 -21 10 -6 -6 -15 -5 -24 1 -13 9 -12 10 3 5 9 -3 17 -1 17 4
0 9 -39 26 -52 22 -4 -1 -23 5 -42 13 -20 9 -36 13 -36 9 0 -3 -7 2 -16 11
-13 13 -19 13 -32 3 -9 -7 -13 -8 -9 -2 8 14 -16 26 -143 68 -156 51 -342 125
-316 126 10 0 127 -44 161 -61 12 -6 27 -11 35 -13 56 -9 297 -91 310 -106 3
-3 14 -6 25 -8 22 -3 50 -10 50 -12 0 -1 8 -3 17 -5 36 -7 124 -37 151 -52 16
-8 31 -13 34 -10 3 3 15 -3 26 -14 12 -11 27 -17 33 -15 6 2 24 -2 39 -10 16
-8 36 -12 45 -9 21 7 115 -27 141 -51 12 -10 19 -12 19 -5 0 8 7 7 23 -3 12
-7 31 -12 41 -10 11 1 25 0 30 -4 19 -11 46 -9 46 4 0 13 -28 28 -47 25 -7 -1
-13 3 -13 9 0 5 -11 10 -24 10 -14 0 -27 4 -30 8 -6 9 -48 8 -64 -2 -8 -5 -10
-2 -6 9 5 11 2 14 -12 8 -13 -5 -15 -3 -9 7 6 10 4 12 -9 7 -10 -4 -19 -1 -22
7 -3 8 -20 14 -37 15 -53 1 -67 4 -67 13 0 4 -10 8 -22 8 -18 0 -20 -2 -8 -10
12 -7 11 -9 -6 -8 -15 2 -20 7 -17 19 4 14 -1 18 -26 17 -17 -1 -36 3 -43 9
-7 5 -24 10 -37 11 -13 0 -27 6 -31 12 -4 7 -20 13 -36 13 -16 1 -31 5 -34 8
-3 3 -52 18 -110 33 -58 16 -118 34 -135 41 -16 7 -50 18 -75 24 -25 7 -61 18
-80 26 -19 7 -56 21 -83 31 -84 30 -42 26 54 -6 198 -64 247 -79 344 -106 55
-14 113 -28 129 -30 16 -2 35 -9 41 -14 7 -6 55 -22 106 -35 152 -39 199 -53
229 -68 29 -15 46 -11 45 11 0 15 -26 33 -37 25 -5 -2 -19 2 -32 10 -13 9 -32
14 -42 13 -10 -2 -35 3 -56 10 -20 7 -38 10 -41 8 -3 -3 -13 -1 -24 4 -10 6
-52 18 -93 27 -41 9 -82 21 -92 26 -10 6 -35 12 -56 15 -20 2 -48 8 -62 13
-14 5 -52 17 -85 26 -107 30 -119 34 -195 59 -41 14 -67 25 -56 26 16 0 16 2
-5 21 l-24 20 23 -11 c13 -6 26 -18 29 -26 3 -7 24 -19 47 -24 86 -23 82 -22
66 -11 -13 10 -13 11 0 10 8 -1 26 -5 40 -9 21 -7 22 -8 5 -9 -16 -1 -17 -3
-5 -11 9 -6 19 -5 28 2 9 8 16 8 20 2 4 -6 18 -7 32 -3 14 4 20 7 14 8 -5 1
-19 8 -30 16 -17 14 -17 14 11 3 17 -7 38 -18 49 -24 10 -7 25 -10 32 -7 8 3
14 1 14 -5 0 -13 64 -35 87 -29 13 3 9 6 -12 11 -16 4 -41 12 -55 19 -14 6
-29 11 -35 12 -5 0 -16 6 -23 13 -7 6 -19 12 -26 12 -7 0 -13 7 -13 15 0 13 3
13 16 2 9 -8 27 -14 39 -15 13 0 30 -9 38 -19 13 -16 14 -17 8 0 -6 18 10 24
21 7 3 -5 12 -10 18 -10 8 0 8 3 -2 9 -9 6 -10 11 -2 15 6 4 11 2 11 -4 0 -6
4 -8 10 -5 6 4 7 -1 3 -11 -4 -11 -2 -15 4 -11 5 3 19 -3 31 -13 22 -21 52
-27 52 -10 0 5 -7 7 -16 3 -13 -5 -15 -2 -9 17 5 15 2 26 -6 32 -10 7 -8 8 6
3 11 -5 30 -8 42 -9 12 -1 25 -4 29 -9 4 -4 23 -4 41 -1 27 5 32 3 27 -9 -9
-24 -41 -27 -63 -6 -24 23 -28 23 -28 5 0 -8 5 -14 11 -13 6 1 10 -3 9 -9 -1
-6 3 -11 10 -11 7 0 21 -4 32 -8 14 -5 16 -4 7 3 -19 13 32 22 95 17 l48 -4
-55 13 c-30 8 -46 14 -35 15 11 0 38 -4 60 -10 22 -5 49 -11 60 -13 11 -2 21
-5 23 -6 3 -4 20 -7 41 -9 14 -1 18 -7 14 -20 -3 -14 2 -20 21 -23 14 -3 26
-1 26 3 0 5 -9 9 -21 9 -15 0 -19 4 -15 16 3 9 6 18 6 20 0 3 4 3 8 0 5 -3 31
-8 58 -12 27 -3 52 -8 57 -11 4 -2 7 0 7 5 0 6 -11 13 -25 16 -15 4 -23 11
-19 17 4 8 9 7 15 -2 4 -7 12 -10 16 -5 4 5 2 11 -4 13 -7 3 -13 9 -13 15 0 6
6 8 13 5 9 -3 13 19 15 93 l3 98 -1348 6 c-741 3 -1368 7 -1393 9 -25 3 -74 1
-110 -3z m608 -37 c-10 -2 -26 -2 -35 0 -10 3 -2 5 17 5 19 0 27 -2 18 -5z
m-205 -10 c-29 -2 -77 -2 -105 0 -29 2 -6 3 52 3 58 0 81 -1 53 -3z m1989 -15
c-20 -20 -14 -25 28 -21 22 2 40 0 40 -5 0 -10 -87 -21 -96 -13 -8 9 -44 8
-44 -1 0 -4 5 -8 12 -8 6 0 9 -2 6 -5 -2 -3 -18 -1 -34 5 -16 5 -56 11 -89 14
-33 3 -77 7 -97 10 -21 2 -36 1 -33 -3 5 -9 -245 -11 -259 -3 -15 9 -115 9
-110 0 3 -4 16 -8 30 -8 13 0 24 -4 24 -9 0 -12 -48 -1 -61 15 -6 8 -19 14
-27 14 -13 0 -12 -3 4 -16 17 -14 17 -15 1 -10 -10 3 -23 6 -28 6 -4 0 -6 7
-2 16 5 13 22 15 104 12 55 -2 99 0 99 3 0 3 21 4 48 3 26 -2 141 -5 255 -8
173 -3 209 -2 214 10 3 8 10 14 16 14 7 0 7 -4 -1 -12z m-959 -12 c17 -13 16
-14 -6 -12 -13 0 -24 7 -24 14 0 15 7 15 30 -2z m202 4 l20 -9 -20 -1 c-11 -1
-14 -4 -7 -7 6 -2 10 -8 7 -13 -7 -11 -45 -1 -45 12 0 5 -16 8 -35 5 -20 -3
-35 0 -35 5 0 7 -4 7 -13 0 -8 -7 -18 -6 -31 4 -18 12 -11 14 60 13 43 0 88
-4 99 -9z m-1638 -6 c-3 -3 -12 -4 -19 -1 -8 3 -5 6 6 6 11 1 17 -2 13 -5z
m1324 -11 c13 -16 12 -17 -3 -4 -17 13 -22 21 -14 21 2 0 10 -8 17 -17z
m-1521 -3 c0 -5 -2 -10 -4 -10 -3 0 -8 5 -11 10 -3 6 -1 10 4 10 6 0 11 -4 11
-10z m1680 6 c0 -2 -8 -10 -17 -17 -16 -13 -17 -12 -4 4 13 16 21 21 21 13z
m1140 -6 c16 -7 -49 -15 -67 -9 -17 6 -25 4 -32 -9 -6 -10 -11 -12 -11 -4 0 6
-9 12 -21 12 -11 0 -18 4 -15 9 5 7 130 8 146 1z m-1050 -35 c59 -32 46 -32
-22 0 -29 14 -46 25 -38 24 8 0 35 -11 60 -24z m245 16 c3 -5 2 -12 -3 -15 -5
-3 -9 1 -9 9 0 17 3 19 12 6z m335 -1 c18 -12 2 -12 -25 0 -13 6 -15 9 -5 9 8
0 22 -4 30 -9z m260 -10 c0 -5 -2 -10 -4 -10 -3 0 -8 5 -11 10 -3 6 -1 10 4
10 6 0 11 -4 11 -10z m-153 -6 c-3 -3 -12 -4 -19 -1 -8 3 -5 6 6 6 11 1 17 -2
13 -5z m-532 -14 c3 -6 -1 -7 -9 -4 -18 7 -21 14 -7 14 6 0 13 -4 16 -10z
m592 4 c-3 -3 -12 -4 -19 -1 -8 3 -5 6 6 6 11 1 17 -2 13 -5z m-152 -14 c-3
-5 -1 -10 6 -10 7 0 10 -3 6 -6 -9 -9 -28 6 -22 17 4 5 8 9 11 9 3 0 2 -4 -1
-10z m120 0 c3 -5 1 -10 -4 -10 -6 0 -11 5 -11 10 0 6 2 10 4 10 3 0 8 -4 11
-10z m72 4 c-3 -3 -12 -4 -19 -1 -8 3 -5 6 6 6 11 1 17 -2 13 -5z m82 -10 c5
3 16 -3 26 -14 17 -19 17 -20 1 -20 -9 0 -14 5 -11 10 3 6 0 10 -9 10 -8 0
-22 3 -32 7 -13 5 -15 3 -9 -8 7 -11 5 -11 -10 1 -14 11 -19 12 -22 2 -3 -6
-9 -9 -15 -6 -19 12 34 33 55 23 9 -6 21 -8 26 -5z m84 -10 c12 -1 39 -5 61
-9 51 -9 87 -13 108 -14 11 -1 15 -6 12 -16 -9 -22 9 -18 23 4 7 11 21 19 32
18 11 0 17 -5 15 -9 -3 -4 4 -8 16 -8 12 0 18 5 15 10 -3 6 -1 10 4 10 13 0
14 -10 2 -29 -5 -7 -14 -11 -20 -7 -7 4 -9 1 -5 -8 5 -12 -2 -14 -38 -10 -66
7 -89 14 -83 24 3 6 -1 10 -10 10 -9 0 -13 -4 -10 -10 3 -5 -1 -10 -9 -10 -10
0 -13 6 -10 15 7 17 -7 20 -22 5 -11 -11 -74 -2 -74 10 0 4 -11 11 -24 14 -13
3 -27 13 -30 22 -5 14 -4 15 9 4 8 -7 25 -14 38 -16z m-543 1 c0 -5 4 -4 8 3
10 15 75 5 69 -12 -5 -14 -56 -9 -105 9 l-37 14 33 -2 c17 -1 32 -6 32 -12z
m706 5 c8 0 14 -4 14 -9 0 -11 -49 -1 -57 12 -4 7 0 8 11 4 10 -4 24 -7 32 -7z
m-869 -6 c-3 -3 -12 -4 -19 -1 -8 3 -5 6 6 6 11 1 17 -2 13 -5z m142 -20 c9
-9 -53 7 -63 17 -5 5 5 4 24 -1 18 -5 35 -12 39 -16z m266 16 c-3 -5 -12 -10
-18 -10 -7 0 -6 4 3 10 19 12 23 12 15 0z m85 -25 c13 -14 19 -25 14 -25 -8 1
-50 50 -41 50 2 0 14 -11 27 -25z m-380 -227 c0 -6 -6 -5 -15 2 -8 7 -15 14
-15 16 0 2 7 1 15 -2 8 -4 15 -11 15 -16z m45 -28 c3 -6 -1 -7 -9 -4 -18 7
-21 14 -7 14 6 0 13 -4 16 -10z m-1094 -93 c-10 -9 -11 -8 -5 6 3 10 9 15 12
12 3 -3 0 -11 -7 -18z m1241 11 c-9 -9 -15 -9 -24 0 -9 9 -7 12 12 12 19 0 21
-3 12 -12z m-157 -8 c3 -5 1 -10 -4 -10 -6 0 -11 5 -11 10 0 6 2 10 4 10 3 0
8 -4 11 -10z m-450 -20 c3 -5 -1 -10 -10 -10 -9 0 -13 5 -10 10 3 6 8 10 10
10 2 0 7 -4 10 -10z m335 -64 c0 -2 -9 -6 -20 -9 -11 -3 -18 -1 -14 4 5 9 34
13 34 5z m797 -33 c1 -22 -1 -24 -8 -10 -6 9 -7 22 -4 27 9 14 10 13 12 -17z
m-1659 -8 c-3 -3 -9 2 -12 12 -6 14 -5 15 5 6 7 -7 10 -15 7 -18z m1353 2
c-10 -9 -11 -8 -5 6 3 10 9 15 12 12 3 -3 0 -11 -7 -18z m-1791 3 c0 -5 -7
-10 -16 -10 -8 0 -12 5 -9 10 3 6 10 10 16 10 5 0 9 -4 9 -10z m-35 -20 c3 -5
1 -10 -4 -10 -6 0 -11 5 -11 10 0 6 2 10 4 10 3 0 8 -4 11 -10z m275 -9 c-11
-21 -30 -37 -30 -25 0 8 30 44 37 44 2 0 -1 -9 -7 -19z m1130 9 c0 -5 -4 -10
-10 -10 -5 0 -8 -6 -6 -12 1 -7 1 -10 -1 -5 -3 4 -9 5 -14 1 -13 -8 -11 4 4
21 14 17 27 19 27 5z m627 -46 c-3 -3 -12 -4 -19 -1 -8 3 -5 6 6 6 11 1 17 -2
13 -5z m-947 -24 c0 -5 -5 -10 -11 -10 -5 0 -7 5 -4 10 3 6 8 10 11 10 2 0 4
-4 4 -10z m-733 -6 c-3 -3 -12 -4 -19 -1 -8 3 -5 6 6 6 11 1 17 -2 13 -5z
m763 -4 c0 -5 -4 -10 -10 -10 -5 0 -10 5 -10 10 0 6 5 10 10 10 6 0 10 -4 10
-10z m-665 -10 c3 -5 1 -10 -4 -10 -6 0 -11 5 -11 10 0 6 2 10 4 10 3 0 8 -4
11 -10z m322 -3 c0 -8 -6 -14 -14 -14 -17 0 -17 14 0 20 6 3 12 6 13 6 0 1 1
-5 1 -12z m678 3 c3 -5 2 -10 -4 -10 -5 0 -13 5 -16 10 -3 6 -2 10 4 10 5 0
13 -4 16 -10z m545 0 c0 -5 -7 -7 -15 -4 -8 4 -15 8 -15 10 0 2 7 4 15 4 8 0
15 -4 15 -10z m-475 -46 c-5 -7 -14 -10 -19 -7 -4 3 -3 9 4 13 9 5 9 9 1 14
-6 4 -11 11 -11 17 0 5 8 1 18 -8 12 -13 14 -21 7 -29z m-104 18 c-7 -2 -18 1
-23 6 -8 8 -4 9 13 5 13 -4 18 -8 10 -11z m-1564 -24 c-3 -8 -6 -5 -6 6 -1 11
2 17 5 13 3 -3 4 -12 1 -19z m1928 12 c3 -5 1 -10 -4 -10 -6 0 -11 5 -11 10 0
6 2 10 4 10 3 0 8 -4 11 -10z m-865 -22 c0 -6 -6 -5 -15 2 -8 7 -15 14 -15 16
0 2 7 1 15 -2 8 -4 15 -11 15 -16z m1165 12 c3 -5 1 -10 -4 -10 -6 0 -11 5
-11 10 0 6 2 10 4 10 3 0 8 -4 11 -10z m-220 -10 c3 -5 -1 -10 -10 -10 -9 0
-13 5 -10 10 3 6 8 10 10 10 2 0 7 -4 10 -10z m-2025 -10 c0 -5 -5 -10 -11
-10 -5 0 -7 5 -4 10 3 6 8 10 11 10 2 0 4 -4 4 -10z m313 -53 c-10 -20 -21
-37 -25 -37 -4 0 -8 -8 -9 -17 0 -11 -2 -13 -6 -5 -3 7 2 24 11 38 9 13 14 30
10 36 -4 6 -3 8 3 5 6 -4 14 0 17 9 4 9 8 15 11 12 2 -2 -3 -21 -12 -41z
m-349 18 c-7 -17 -20 -20 -28 -6 -4 5 0 12 6 14 23 9 28 7 22 -8z m1703 -1
c-3 -3 -12 -4 -19 -1 -8 3 -5 6 6 6 11 1 17 -2 13 -5z m387 -10 c3 -8 2 -12
-4 -9 -6 3 -10 10 -10 16 0 14 7 11 14 -7z m341 -4 c3 -5 2 -10 -4 -10 -5 0
-13 5 -16 10 -3 6 -2 10 4 10 5 0 13 -4 16 -10z m-1044 -18 c-7 -2 -18 1 -23
6 -8 8 -4 9 13 5 13 -4 18 -8 10 -11z m784 7 c11 -17 -1 -21 -15 -4 -8 9 -8
15 -2 15 6 0 14 -5 17 -11z m-1405 -15 c0 -2 -7 -4 -15 -4 -8 0 -15 4 -15 10
0 5 7 7 15 4 8 -4 15 -8 15 -10z m218 -25 c11 -14 9 -16 -12 -16 -21 0 -23 2
-13 18 6 10 12 17 12 16 0 -1 6 -9 13 -18z m1203 -2 c-10 -9 -11 -8 -5 6 3 10
9 15 12 12 3 -3 0 -11 -7 -18z m-773 -4 c-6 -7 -12 -13 -13 -13 -2 0 -5 6 -8
13 -3 7 3 13 14 13 13 0 15 -3 7 -13z m357 -23 c-3 -5 -12 -10 -18 -10 -7 0
-6 4 3 10 19 12 23 12 15 0z m455 6 c0 -2 -8 -10 -17 -17 -16 -13 -17 -12 -4
4 13 16 21 21 21 13z m30 -16 c0 -5 -2 -10 -4 -10 -3 0 -8 5 -11 10 -3 6 -1
10 4 10 6 0 11 -4 11 -10z m-1256 -16 c3 -8 2 -12 -4 -9 -6 3 -10 10 -10 16 0
14 7 11 14 -7z m861 -14 c-3 -5 -12 -10 -18 -10 -7 0 -6 4 3 10 19 12 23 12
15 0z m-2057 -21 c-16 -11 -28 -27 -28 -35 0 -8 -6 -11 -15 -8 -8 4 -15 1 -15
-5 0 -6 -6 -11 -12 -11 -15 1 72 79 87 79 6 0 -2 -9 -17 -20z m2042 -20 c0 -5
-4 -9 -8 -9 -5 0 -9 7 -9 15 0 8 4 12 9 9 4 -3 8 -9 8 -15z m45 -57 c-6 -6
-35 18 -35 29 0 5 9 1 20 -8 11 -9 17 -19 15 -21z m-2135 -7 c-7 -8 -18 -15
-24 -15 -6 0 -2 7 8 15 25 19 32 19 16 0z m230 -6 c0 -6 -4 -7 -10 -4 -5 3
-10 11 -10 16 0 6 5 7 10 4 6 -3 10 -11 10 -16z m981 -2 c-10 -9 -11 -8 -5 6
3 10 9 15 12 12 3 -3 0 -11 -7 -18z"/>
<path d="M2797 949 c7 -7 15 -10 18 -7 3 3 -2 9 -12 12 -14 6 -15 5 -6 -5z"/>
<path d="M2977 934 c6 -15 23 -19 23 -5 0 5 -7 11 -14 14 -10 4 -13 1 -9 -9z"/>
<path d="M1261 1054 c-13 -13 -28 -24 -33 -24 -6 0 0 9 13 20 31 26 15 26 -18
0 -14 -11 -20 -20 -12 -20 40 0 -527 -301 -586 -312 -11 -1 -27 -11 -36 -20
-9 -10 -21 -18 -28 -18 -6 0 -11 -5 -11 -11 0 -5 -4 -8 -9 -4 -5 3 -12 1 -16
-5 -3 -5 -14 -10 -24 -10 -10 0 -24 -7 -31 -15 -10 -12 -16 -13 -28 -3 -10 8
-13 9 -9 1 7 -12 -70 -63 -96 -63 -8 0 -20 -7 -27 -15 -7 -9 -19 -14 -26 -11
-8 3 -13 0 -11 -6 1 -5 -13 -19 -31 -29 -17 -10 -32 -16 -32 -13 0 4 -7 1 -15
-6 -13 -10 -19 -9 -38 6 -22 19 -22 19 -5 -1 16 -20 16 -21 -2 -33 -17 -10
-20 -10 -21 5 0 13 -3 11 -11 -7 -6 -15 -12 -20 -15 -12 -8 20 -26 14 -20 -8
4 -17 2 -18 -14 -9 -11 5 -25 19 -32 29 -13 22 -37 27 -37 8 0 -6 3 -8 7 -5 7
8 53 -31 53 -45 0 -5 -4 -7 -10 -3 -5 3 -18 0 -30 -7 -28 -18 -29 -98 0 -116
16 -10 20 -10 20 2 0 8 -6 17 -12 20 -7 3 -3 3 10 0 21 -5 22 -3 17 23 l-6 28
16 -27 c16 -29 39 -36 50 -17 4 6 -2 13 -13 16 -19 5 -19 6 -4 22 10 10 21 16
26 13 4 -2 2 -9 -5 -14 -10 -7 -9 -8 6 -4 30 8 44 -5 38 -37 -4 -22 -8 -25
-20 -16 -10 9 -17 9 -25 1 -9 -9 -8 -12 5 -12 9 0 17 -4 17 -10 0 -5 -7 -10
-17 -10 -9 0 -13 -3 -10 -7 10 -9 -25 -32 -50 -33 -13 0 -23 5 -23 11 0 7 -8
1 -19 -12 -15 -20 -19 -43 -20 -125 -1 -81 1 -101 13 -101 8 0 12 6 10 12 -6
14 26 16 43 3 7 -6 20 -7 29 -4 9 3 21 3 27 -1 18 -11 37 -12 37 -3 0 5 -4 11
-10 15 -5 3 -7 12 -3 20 3 8 0 15 -6 15 -6 0 -11 -8 -11 -17 0 -12 -8 -18 -25
-19 -14 -1 -22 2 -19 7 3 5 -2 9 -11 9 -9 0 -14 4 -10 10 3 5 13 6 23 3 15 -6
15 -5 3 10 -19 24 -6 33 23 18 13 -8 33 -10 46 -6 13 4 25 3 29 -4 5 -8 12 -7
25 2 14 10 16 18 9 31 -5 10 -13 17 -16 17 -24 -3 -37 0 -37 10 0 6 9 9 20 6
11 -3 23 0 27 5 4 7 1 8 -8 4 -8 -4 -5 0 5 8 11 9 25 16 30 16 6 0 5 -4 -3 -9
-11 -7 -9 -11 9 -21 20 -11 22 -10 16 5 -4 13 -2 16 9 11 18 -6 20 5 3 22 -6
6 -9 15 -5 18 4 4 16 -4 27 -17 l20 -24 -6 30 c-3 17 -8 38 -10 47 -4 12 0 15
16 11 15 -4 19 -2 15 9 -4 10 1 17 14 21 14 3 21 0 21 -9 0 -7 -6 -11 -14 -8
-11 4 -13 0 -9 -17 6 -21 7 -21 20 -3 14 18 15 18 27 1 11 -14 15 -15 19 -3 3
8 -2 16 -12 19 -10 2 -20 16 -23 31 -6 32 -1 33 23 4 l19 -21 -7 34 c-3 19
-10 36 -15 37 -4 2 -8 8 -8 13 0 6 4 7 10 4 5 -3 19 -1 30 5 19 10 20 10 8
-10 -11 -17 -11 -22 2 -30 23 -14 30 1 21 43 -8 32 -7 37 10 37 10 0 22 8 28
17 5 10 13 15 17 10 4 -4 12 3 19 16 6 12 17 21 23 20 7 -2 12 4 12 14 0 15 1
15 18 0 23 -21 39 -22 22 -2 -10 12 -10 15 1 15 8 0 5 6 -7 16 -18 15 -18 15
5 8 18 -4 22 -3 16 7 -6 9 -3 11 8 6 10 -3 17 -2 17 4 0 6 5 7 12 3 7 -5 9 0
6 14 -5 18 -2 20 23 17 16 -2 27 0 26 3 -4 14 42 54 53 47 9 -5 10 -1 5 16
l-8 24 23 -20 c13 -11 20 -15 16 -8 -10 18 55 78 66 61 6 -10 8 -10 8 1 0 15
86 101 101 101 5 0 17 6 26 14 10 8 45 36 78 63 33 26 78 61 100 77 22 16 56
43 75 60 19 17 46 39 60 49 14 10 18 16 10 14 -8 -2 -22 -1 -30 4 -11 5 -23
-1 -39 -17z m12 -22 c-21 -14 -53 -38 -71 -54 -18 -15 -50 -37 -71 -48 -22
-10 -45 -25 -52 -32 -8 -7 -61 -44 -119 -83 -58 -38 -107 -73 -110 -76 -3 -3
-30 -20 -60 -38 -52 -30 -141 -89 -167 -111 -18 -14 -34 -12 -57 7 -17 14 -16
12 2 -9 l24 -26 -36 -17 c-20 -10 -36 -21 -36 -26 0 -5 -6 -9 -14 -9 -7 0 -19
-7 -27 -16 -7 -8 -21 -13 -32 -10 -10 2 -16 2 -13 -1 7 -8 -30 -41 -55 -48
-11 -4 -17 -11 -14 -16 4 -5 2 -9 -4 -9 -5 0 -23 -12 -41 -26 -17 -15 -30 -23
-29 -18 5 31 -4 34 -18 6 -14 -28 -20 -32 -42 -27 -14 3 -21 2 -15 -2 6 -4 14
-17 18 -28 6 -16 5 -18 -5 -8 -16 16 -43 17 -33 2 4 -7 1 -10 -7 -7 -8 3 -14
13 -15 24 -2 38 -4 42 -26 48 -22 6 -22 7 -4 17 15 9 21 8 28 -5 5 -9 14 -16
20 -16 6 0 4 8 -5 18 -25 27 -21 33 18 28 29 -4 35 -1 35 15 0 10 7 19 15 19
8 0 19 9 26 21 7 14 17 19 30 16 17 -4 19 -2 13 16 -6 19 -5 20 10 8 14 -12
16 -11 16 4 0 11 5 15 15 11 8 -3 15 -1 15 4 0 6 6 10 14 10 8 0 17 6 19 13 4
9 8 9 15 -1 7 -11 10 -9 15 7 6 23 42 29 51 9 3 -7 3 0 -1 15 -5 26 -4 28 22
21 16 -4 26 -3 22 2 -3 5 1 18 9 29 8 10 14 15 14 11 0 -4 13 2 30 14 16 12
35 18 41 14 7 -4 9 -3 6 3 -4 6 5 14 19 17 17 5 24 12 20 21 -3 9 0 12 10 8 8
-3 20 -1 27 4 18 14 59 14 51 1 -5 -7 -2 -8 6 -3 11 7 11 10 -1 18 -12 8 13
24 110 75 69 35 131 68 137 73 6 5 40 24 75 43 35 18 88 50 118 70 29 20 57
36 62 36 5 0 9 7 9 15 0 9 6 12 15 8 12 -4 7 -12 -22 -31z m-1003 -556 c0 -3
-4 -8 -10 -11 -5 -3 -10 -1 -10 4 0 6 5 11 10 11 6 0 10 -2 10 -4z m-227 -276
c-22 -22 -37 -15 -23 10 6 12 16 17 26 13 13 -5 13 -8 -3 -23z m217 5 c0 -11
-9 -14 -34 -12 -19 1 -32 5 -29 10 2 4 15 4 29 1 14 -4 24 -2 24 5 0 6 2 11 5
11 3 0 5 -7 5 -15z m-190 -39 c0 -3 -4 -8 -10 -11 -5 -3 -10 -1 -10 4 0 6 5
11 10 11 6 0 10 -2 10 -4z m150 -70 c0 -3 -4 -8 -10 -11 -5 -3 -10 -1 -10 4 0
6 5 11 10 11 6 0 10 -2 10 -4z"/>
<path d="M472 544 c10 -10 20 -16 22 -13 3 3 -5 11 -17 18 -21 13 -21 12 -5
-5z"/>
<path d="M405 530 c-3 -5 1 -10 10 -10 9 0 13 5 10 10 -3 6 -8 10 -10 10 -2 0
-7 -4 -10 -10z"/>
<path d="M290 435 c7 -9 15 -13 17 -11 7 7 -7 26 -19 26 -6 0 -6 -6 2 -15z"/>
<path d="M261 416 c-7 -8 -8 -17 -3 -20 6 -3 13 1 16 10 9 23 2 28 -13 10z"/>
<path d="M704 1041 c3 -5 15 -7 26 -4 28 7 25 13 -6 13 -14 0 -23 -4 -20 -9z"/>
<path d="M1165 1040 c-3 -5 -2 -10 4 -10 5 0 13 5 16 10 3 6 2 10 -4 10 -5 0
-13 -4 -16 -10z"/>
<path d="M290 1005 c-10 -12 -10 -15 2 -15 8 0 15 7 15 15 0 8 -1 15 -2 15 -2
0 -8 -7 -15 -15z"/>
<path d="M818 1013 c7 -3 16 -2 19 1 4 3 -2 6 -13 5 -11 0 -14 -3 -6 -6z"/>
<path d="M1090 984 c-30 -19 -44 -32 -31 -28 33 9 91 44 91 55 0 13 0 13 -60
-27z"/>
<path d="M124 984 c-1 -18 1 -20 10 -11 16 14 16 34 2 34 -6 0 -12 -11 -12
-23z"/>
<path d="M246 997 c3 -10 9 -15 12 -12 3 3 0 11 -7 18 -10 9 -11 8 -5 -6z"/>
<path d="M480 1000 c0 -5 5 -10 11 -10 5 0 7 5 4 10 -3 6 -8 10 -11 10 -2 0
-4 -4 -4 -10z"/>
<path d="M580 1000 c-9 -6 -10 -10 -3 -10 6 0 15 5 18 10 8 12 4 12 -15 0z"/>
<path d="M995 994 c-22 -8 -49 -18 -60 -20 -20 -5 -20 -5 -1 10 25 20 18 20
-25 1 -29 -12 -30 -14 -11 -15 14 0 21 -4 16 -11 -8 -13 25 -4 68 17 41 21 58
16 18 -6 -19 -11 -30 -19 -24 -20 16 0 117 50 111 56 -3 3 -14 1 -25 -5 -26
-14 -35 -14 -27 -1 8 12 9 12 -40 -6z"/>
<path d="M395 987 c-16 -13 -15 -14 13 -9 18 2 32 8 32 13 0 13 -24 11 -45 -4z"/>
<path d="M173 983 c9 -2 23 -2 30 0 6 3 -1 5 -18 5 -16 0 -22 -2 -12 -5z"/>
<path d="M835 980 c-16 -7 -17 -9 -3 -9 9 -1 20 4 23 9 7 11 7 11 -20 0z"/>
<path d="M8 973 c7 -3 16 -2 19 1 4 3 -2 6 -13 5 -11 0 -14 -3 -6 -6z"/>
<path d="M305 970 c-3 -6 1 -7 9 -4 18 7 21 14 7 14 -6 0 -13 -4 -16 -10z"/>
<path d="M215 960 c3 -5 8 -10 11 -10 2 0 4 5 4 10 0 6 -5 10 -11 10 -5 0 -7
-4 -4 -10z"/>
<path d="M883 893 c-57 -25 -103 -50 -103 -55 0 -5 13 -2 30 7 16 8 34 15 40
15 6 0 28 11 49 25 22 13 51 27 65 31 25 6 47 24 29 24 -4 0 -54 -21 -110 -47z"/>
<path d="M110 920 c0 -5 5 -10 11 -10 5 0 7 5 4 10 -3 6 -8 10 -11 10 -2 0 -4
-4 -4 -10z"/>
<path d="M820 900 c0 -5 7 -7 15 -4 8 4 15 8 15 10 0 2 -7 4 -15 4 -8 0 -15
-4 -15 -10z"/>
<path d="M2331 900 c9 -5 48 -17 85 -26 81 -19 86 -20 139 -34 22 -6 76 -20
120 -31 44 -10 89 -21 100 -24 30 -8 100 -16 95 -12 -3 3 -54 17 -115 32 -107
26 -157 44 -126 45 8 0 71 -14 140 -30 69 -17 143 -34 164 -39 21 -5 39 -5 43
0 3 5 -5 9 -18 9 -30 0 -52 15 -44 29 4 6 0 11 -11 12 -16 0 -16 1 2 9 15 6
16 9 4 9 -23 1 -30 -10 -16 -27 10 -13 8 -14 -18 -8 -16 4 -57 11 -90 17 -33
5 -82 16 -110 24 -27 7 -72 16 -100 19 l-50 5 37 -12 c42 -14 66 -34 28 -23
-34 9 -48 13 -101 25 -26 6 -57 14 -70 19 -39 15 -107 24 -88 12z"/>
<path d="M750 881 c-53 -18 -55 -19 -48 -27 4 -3 16 0 28 6 12 6 31 13 42 15
22 5 34 13 27 19 -2 2 -24 -4 -49 -13z"/>
<path d="M2810 880 c8 -5 22 -10 30 -10 13 0 13 1 0 10 -8 5 -22 10 -30 10
-13 0 -13 -1 0 -10z"/>
<path d="M2780 870 c0 -5 5 -10 11 -10 5 0 7 5 4 10 -3 6 -8 10 -11 10 -2 0
-4 -4 -4 -10z"/>
<path d="M2870 876 c0 -2 7 -7 16 -10 8 -3 12 -2 9 4 -6 10 -25 14 -25 6z"/>
<path d="M2970 871 c22 -12 116 -23 105 -12 -6 4 -35 11 -65 14 -31 4 -48 3
-40 -2z"/>
<path d="M2760 850 c8 -5 22 -9 30 -9 10 0 8 3 -5 9 -27 12 -43 12 -25 0z"/>
<path d="M2816 851 c-4 -5 3 -7 14 -4 23 6 26 13 6 13 -8 0 -17 -4 -20 -9z"/>
<path d="M645 840 c-3 -6 1 -7 9 -4 18 7 21 14 7 14 -6 0 -13 -4 -16 -10z"/>
<path d="M2998 843 c6 -2 18 -2 25 0 6 3 1 5 -13 5 -14 0 -19 -2 -12 -5z"/>
<path d="M10 836 c0 -2 8 -10 18 -17 15 -13 16 -12 3 4 -13 16 -21 21 -21 13z"/>
<path d="M187 829 c7 -7 15 -10 18 -7 3 3 -2 9 -12 12 -14 6 -15 5 -6 -5z"/>
<path d="M468 833 c-10 -2 -18 -9 -18 -14 0 -6 8 -5 20 1 11 6 20 13 20 15 0
3 -1 4 -2 4 -2 -1 -11 -3 -20 -6z"/>
<path d="M730 825 c-14 -8 -20 -14 -14 -15 5 0 19 7 30 15 24 18 16 19 -16 0z"/>
<path d="M290 818 c0 -4 7 -8 15 -8 8 0 15 4 15 8 0 5 -7 9 -15 9 -8 0 -15 -4
-15 -9z"/>
<path d="M3057 819 c7 -7 15 -10 18 -7 3 3 -2 9 -12 12 -14 6 -15 5 -6 -5z"/>
<path d="M80 810 c0 -5 5 -10 11 -10 5 0 7 5 4 10 -3 6 -8 10 -11 10 -2 0 -4
-4 -4 -10z"/>
<path d="M388 813 c-10 -2 -18 -9 -18 -14 0 -6 7 -6 19 0 10 6 22 7 26 3 5 -4
5 -1 1 6 -4 6 -8 11 -9 11 -1 -1 -10 -3 -19 -6z"/>
<path d="M653 795 c-18 -8 -33 -12 -33 -9 0 3 -19 -5 -42 -17 -24 -12 -52 -26
-62 -31 -11 -6 -31 -14 -45 -18 -14 -4 -35 -11 -45 -16 -15 -6 -17 -4 -11 7 5
8 5 11 -1 6 -5 -5 -9 -14 -9 -20 0 -7 -9 -12 -21 -12 -11 -1 -36 -10 -55 -21
-18 -11 -42 -23 -52 -27 -9 -3 -17 -11 -17 -16 0 -5 -9 -7 -20 -4 -12 3 -29
-2 -39 -11 -10 -9 -21 -13 -24 -9 -4 3 -7 1 -7 -7 0 -10 -3 -10 -15 0 -10 9
-15 9 -15 1 0 -15 -33 -14 -48 1 -7 7 -12 8 -12 4 0 -5 8 -15 18 -22 13 -10
14 -13 3 -14 -8 0 -23 -8 -34 -17 -11 -10 -17 -13 -14 -6 5 7 0 9 -13 6 -21
-6 -22 -30 -1 -25 6 1 11 -3 11 -8 0 -6 11 -3 25 6 13 8 29 13 34 10 6 -4 15
3 21 14 8 14 21 20 46 20 28 0 34 4 32 18 -2 12 4 17 22 17 14 -1 31 7 38 17
12 17 15 17 43 2 17 -8 33 -13 36 -10 3 3 -2 8 -11 12 -9 3 -16 10 -16 16 0 5
5 6 10 3 6 -3 10 -1 10 4 0 6 3 10 8 9 4 -1 20 4 35 10 16 7 34 9 40 5 7 -3 9
-3 5 2 -4 4 -3 14 3 21 8 10 16 11 32 3 17 -10 19 -9 13 7 -4 10 -4 15 0 11 4
-4 14 -1 23 7 9 8 25 16 36 18 11 1 23 8 27 13 5 6 16 5 30 -4 22 -13 22 -13
8 4 -14 17 -13 18 8 12 13 -3 21 -3 18 1 -4 3 12 16 36 29 48 25 41 30 -9 8z"/>
<path d="M2998 803 c6 -2 18 -2 25 0 6 3 1 5 -13 5 -14 0 -19 -2 -12 -5z"/>
<path d="M518 793 c7 -3 16 -2 19 1 4 3 -2 6 -13 5 -11 0 -14 -3 -6 -6z"/>
<path d="M3048 793 c6 -2 18 -2 25 0 6 3 1 5 -13 5 -14 0 -19 -2 -12 -5z"/>
<path d="M85 780 c3 -5 8 -10 11 -10 2 0 4 5 4 10 0 6 -5 10 -11 10 -5 0 -7
-4 -4 -10z"/>
<path d="M316 781 c-4 -5 3 -7 14 -4 23 6 26 13 6 13 -8 0 -17 -4 -20 -9z"/>
<path d="M2990 781 c0 -11 79 -35 88 -27 8 9 -2 16 -27 21 -13 2 -31 7 -42 10
-10 4 -19 2 -19 -4z"/>
<path d="M276 772 c-3 -5 1 -9 9 -9 8 0 15 4 15 9 0 4 -4 8 -9 8 -6 0 -12 -4
-15 -8z"/>
<path d="M2885 772 c6 -5 33 -17 60 -26 28 -10 57 -20 65 -23 19 -7 70 -12 70
-7 0 8 -61 34 -70 29 -5 -3 -11 -1 -15 5 -3 5 -19 10 -35 10 -16 0 -41 5 -57
11 -15 5 -23 6 -18 1z"/>
<path d="M210 761 c0 -5 5 -13 10 -16 6 -3 10 -2 10 4 0 5 -4 13 -10 16 -5 3
-10 2 -10 -4z"/>
<path d="M18 753 c7 -3 16 -2 19 1 4 3 -2 6 -13 5 -11 0 -14 -3 -6 -6z"/>
<path d="M170 750 c0 -5 5 -10 11 -10 5 0 7 5 4 10 -3 6 -8 10 -11 10 -2 0 -4
-4 -4 -10z"/>
<path d="M360 750 c0 -5 5 -10 10 -10 6 0 10 5 10 10 0 6 -4 10 -10 10 -5 0
-10 -4 -10 -10z"/>
<path d="M314 742 c3 -5 0 -12 -6 -15 -7 -2 -10 -7 -7 -11 3 -4 12 0 18 8 9
11 9 16 0 22 -7 4 -9 3 -5 -4z"/>
<path d="M360 715 c13 -14 26 -25 28 -25 3 0 -5 11 -18 25 -13 14 -26 25 -28
25 -3 0 5 -11 18 -25z"/>
<path d="M228 720 c14 -16 62 -21 62 -7 0 5 -10 7 -22 4 -12 -4 -29 -1 -37 5
-14 10 -14 10 -3 -2z"/>
<path d="M56 711 c-4 -5 1 -8 9 -7 21 3 31 16 12 16 -9 0 -18 -4 -21 -9z"/>
<path d="M2958 715 c-15 -15 7 -36 54 -50 52 -15 68 -13 68 10 0 17 -22 25
-70 25 -21 0 -40 5 -42 11 -2 5 -6 7 -10 4z"/>
<path d="M0 692 c0 -12 9 -22 22 -25 24 -7 41 3 20 10 -7 3 -19 11 -27 20 -13
13 -15 12 -15 -5z"/>
<path d="M190 691 c0 -5 -16 -12 -35 -15 -39 -8 -53 -23 -35 -39 10 -9 12 -8
6 7 -5 14 -3 17 10 12 9 -4 22 -2 28 2 18 15 69 21 88 11 14 -7 16 -6 12 6 -3
8 -10 13 -14 10 -5 -3 -11 -1 -15 5 -8 12 -45 13 -45 1z"/>
<path d="M2687 671 c-22 -8 -21 -22 5 -40 15 -10 23 -10 31 -2 9 9 6 13 -11
18 -21 5 -21 6 -5 19 19 14 9 17 -20 5z"/>
<path d="M58 643 c-31 -16 -35 -28 -12 -37 9 -4 13 -2 8 5 -4 7 0 9 12 5 29
-9 47 6 31 25 -10 14 -16 14 -39 2z m32 -13 c0 -5 -5 -10 -11 -10 -5 0 -7 5
-4 10 3 6 8 10 11 10 2 0 4 -4 4 -10z"/>
<path d="M2727 650 c6 -7 10 -18 7 -24 -5 -14 100 -60 120 -53 10 4 13 1 10
-7 -6 -16 46 -32 55 -17 4 6 12 7 21 1 8 -6 11 -10 6 -10 -21 0 35 -41 64 -47
17 -3 33 -10 36 -14 3 -5 12 -9 19 -9 17 0 18 47 2 67 -5 7 -7 20 -3 28 5 13
-1 15 -36 11 -23 -3 -48 0 -55 6 -7 6 -13 7 -13 3 0 -4 -7 -2 -15 5 -9 7 -18
10 -22 7 -3 -4 -14 3 -24 14 -13 15 -26 20 -44 17 -18 -4 -23 -2 -16 6 12 14
-47 15 -69 1 -9 -5 -11 -4 -6 3 4 7 3 12 -3 12 -5 0 -18 3 -28 6 -14 6 -16 4
-6 -6z m77 -39 c4 -5 -3 -7 -14 -4 -23 6 -26 13 -6 13 8 0 17 -4 20 -9z m46
-15 c0 -11 -19 -15 -25 -6 -3 5 1 10 9 10 9 0 16 -2 16 -4z m50 -6 c0 -5 -5
-10 -11 -10 -5 0 -7 5 -4 10 3 6 8 10 11 10 2 0 4 -4 4 -10z m143 -68 c-4 -10
-9 -10 -22 0 -9 7 -17 13 -19 14 -2 1 8 1 21 0 15 0 23 -6 20 -14z"/>
<path d="M1025 600 c3 -5 8 -10 11 -10 2 0 4 5 4 10 0 6 -5 10 -11 10 -5 0 -7
-4 -4 -10z"/>
<path d="M1 589 c0 -9 6 -22 14 -29 10 -9 15 -9 15 -1 0 6 -4 11 -9 11 -5 0
-12 8 -14 18 -4 14 -5 14 -6 1z"/>
<path d="M236 547 c3 -10 9 -15 12 -12 3 3 0 11 -7 18 -10 9 -11 8 -5 -6z"/>
<path d="M1230 540 c0 -5 5 -10 11 -10 5 0 7 5 4 10 -3 6 -8 10 -11 10 -2 0
-4 -4 -4 -10z"/>
<path d="M0 505 c0 -8 7 -15 15 -15 9 0 12 6 9 15 -4 8 -10 15 -15 15 -5 0 -9
-7 -9 -15z"/>
<path d="M915 490 c3 -5 8 -10 11 -10 2 0 4 5 4 10 0 6 -5 10 -11 10 -5 0 -7
-4 -4 -10z"/>
<path d="M2180 450 c0 -15 21 -23 32 -12 6 6 2 11 -11 15 -12 3 -21 1 -21 -3z"/>
<path d="M10 440 c0 -5 5 -10 11 -10 5 0 7 5 4 10 -3 6 -8 10 -11 10 -2 0 -4
-4 -4 -10z"/>
<path d="M552 430 c7 -10 14 -18 15 -16 6 6 -9 36 -18 36 -5 0 -4 -9 3 -20z"/>
<path d="M515 400 c3 -5 8 -10 11 -10 2 0 4 5 4 10 0 6 -5 10 -11 10 -5 0 -7
-4 -4 -10z"/>
<path d="M845 390 c3 -5 8 -10 11 -10 2 0 4 5 4 10 0 6 -5 10 -11 10 -5 0 -7
-4 -4 -10z"/>
<path d="M1220 335 c7 -8 17 -15 22 -15 5 0 3 7 -6 15 -8 8 -18 15 -22 15 -3
0 -1 -7 6 -15z"/>
<path d="M1921 329 c-11 -19 -11 -21 2 -16 8 3 21 0 28 -6 10 -10 11 -9 2 3
-6 8 -12 21 -14 28 -3 8 -9 4 -18 -9z"/>
<path d="M1155 300 c4 -6 11 -8 16 -5 14 9 11 15 -7 15 -8 0 -12 -5 -9 -10z"/>
<path d="M80 276 c0 -8 4 -17 9 -20 5 -4 7 3 4 14 -6 23 -13 26 -13 6z"/>
<path d="M445 280 c-3 -5 -1 -10 4 -10 6 0 11 5 11 10 0 6 -2 10 -4 10 -3 0
-8 -4 -11 -10z"/>
<path d="M45 270 c-3 -5 -1 -10 4 -10 6 0 11 5 11 10 0 6 -2 10 -4 10 -3 0 -8
-4 -11 -10z"/>
<path d="M1554 271 c4 -5 1 -12 -4 -14 -6 -3 -5 -4 2 -3 15 3 23 26 8 26 -6 0
-9 -4 -6 -9z"/>
<path d="M817 259 c7 -7 15 -10 18 -7 3 3 -2 9 -12 12 -14 6 -15 5 -6 -5z"/>
<path d="M2355 240 c3 -5 13 -10 22 -10 9 0 25 -7 35 -17 10 -9 18 -11 18 -6
0 15 -21 29 -53 37 -19 4 -26 3 -22 -4z"/>
<path d="M1195 231 c-3 -5 -1 -12 5 -16 5 -3 10 1 10 9 0 18 -6 21 -15 7z"/>
<path d="M1160 205 c7 -9 15 -13 17 -11 7 7 -7 26 -19 26 -6 0 -6 -6 2 -15z"/>
<path d="M750 186 c0 -9 5 -16 10 -16 6 0 10 4 10 9 0 6 -4 13 -10 16 -5 3
-10 -1 -10 -9z"/>
<path d="M2455 170 c10 -11 20 -20 23 -20 3 0 -3 9 -13 20 -10 11 -20 20 -23
20 -3 0 3 -9 13 -20z"/>
<path d="M2476 178 c3 -4 9 -8 15 -8 5 0 9 4 9 8 0 5 -7 9 -15 9 -8 0 -12 -4
-9 -9z"/>
<path d="M706 171 c-3 -5 3 -11 15 -14 16 -4 18 -3 8 9 -13 16 -16 17 -23 5z"/>
<path d="M345 160 c3 -5 8 -10 11 -10 2 0 4 5 4 10 0 6 -5 10 -11 10 -5 0 -7
-4 -4 -10z"/>
<path d="M1155 140 c3 -5 8 -10 11 -10 2 0 4 5 4 10 0 6 -5 10 -11 10 -5 0 -7
-4 -4 -10z"/>
<path d="M1130 124 c0 -8 5 -12 10 -9 6 4 8 11 5 16 -9 14 -15 11 -15 -7z"/>
<path d="M239 117 c6 -8 8 -17 4 -21 -4 -4 0 -4 10 0 14 5 15 9 6 20 -6 8 -16
14 -21 14 -7 0 -6 -5 1 -13z"/>
<path d="M680 120 c-8 -5 -10 -10 -5 -10 6 0 17 5 25 10 8 5 11 10 5 10 -5 0
-17 -5 -25 -10z"/>
<path d="M645 101 c-3 -5 2 -11 10 -15 8 -3 17 -1 20 3 3 5 -2 11 -10 15 -8 3
-17 1 -20 -3z"/>
<path d="M2085 80 c10 -11 23 -20 28 -20 6 0 2 9 -8 20 -10 11 -23 20 -28 20
-6 0 -2 -9 8 -20z"/>
<path d="M2573 75 c-8 -23 4 -30 21 -12 8 8 12 17 9 21 -11 11 -23 7 -30 -9z"/>
<path d="M1095 50 c3 -5 8 -10 11 -10 2 0 4 5 4 10 0 6 -5 10 -11 10 -5 0 -7
-4 -4 -10z"/>
<path d="M1580 48 c0 -4 12 -8 26 -8 24 0 25 -2 13 -17 -12 -14 -12 -16 1 -11
8 2 15 13 15 23 0 13 -8 19 -27 19 -16 1 -28 -2 -28 -6z"/>
<path d="M630 40 c0 -5 5 -10 11 -10 5 0 7 5 4 10 -3 6 -8 10 -11 10 -2 0 -4
-4 -4 -10z"/>
<path d="M1105 21 c-3 -5 -1 -12 5 -16 5 -3 10 1 10 9 0 18 -6 21 -15 7z"/>
</g>
</svg>
